<?xml version="1.0" standalone="no"?>
<!DOCTYPE svg PUBLIC "-//W3C//DTD SVG 20010904//EN"
 "http://www.w3.org/TR/2001/REC-SVG-20010904/DTD/svg10.dtd">
<svg version="1.0" xmlns="http://www.w3.org/2000/svg"
 width="1042.000000pt" height="1042.000000pt" viewBox="0 0 1042.000000 1042.000000"
 preserveAspectRatio="xMidYMid meet">
<metadata>
Created by potrace 1.14, written by Peter Selinger 2001-2017
</metadata>
<g transform="translate(0.000000,1042.000000) scale(0.100000,-0.100000)"
fill="#000000" stroke="none">
<path d="M0 5210 l0 -5210 5210 0 5210 0 0 5210 0 5210 -5210 0 -5210 0 0
-5210z m5500 2160 c0 -5 7 -10 16 -10 18 0 44 -23 44 -39 0 -6 5 -11 11 -11 6
0 17 -6 25 -14 11 -12 14 -55 14 -221 0 -113 4 -204 8 -201 5 3 9 -14 11 -37
1 -23 6 -43 12 -45 5 -2 9 -10 9 -19 0 -19 24 -43 44 -43 9 0 16 -4 16 -10 0
-5 14 -10 30 -10 17 0 30 -4 30 -10 0 -6 83 -10 230 -10 l230 0 0 -40 0 -40
-250 0 c-160 0 -250 4 -250 10 0 6 -12 10 -26 10 -14 0 -32 7 -41 15 -8 8 -19
12 -25 9 -7 -4 -8 -2 -4 4 4 7 2 12 -5 12 -14 0 -49 38 -49 54 0 6 -5 4 -10
-4 -8 -12 -10 -11 -10 8 0 12 -4 22 -10 22 -5 0 -10 14 -10 30 0 17 -4 30 -10
30 -6 0 -10 79 -10 216 0 173 -3 218 -14 230 -12 11 -52 14 -195 14 l-181 0 0
55 0 55 185 0 c117 0 185 -4 185 -10z m-580 -356 c0 -243 3 -298 14 -310 12
-11 52 -14 196 -14 118 0 179 -3 175 -10 -4 -6 8 -10 29 -10 28 0 45 -9 77
-40 23 -22 48 -40 55 -40 8 0 14 -5 14 -11 0 -6 14 -24 30 -39 17 -15 30 -35
30 -44 0 -9 5 -16 10 -16 6 0 10 -9 10 -20 0 -11 6 -19 12 -17 7 1 14 -8 16
-20 2 -13 8 -23 13 -23 5 0 9 -78 9 -186 0 -147 3 -188 14 -200 12 -11 63 -14
276 -14 172 0 259 3 255 10 -3 6 3 10 14 10 21 0 21 5 21 200 l0 200 50 0 50
0 0 -205 0 -206 -45 -44 -44 -45 -281 0 c-231 0 -284 -3 -296 -14 -11 -12 -14
-68 -14 -315 l0 -301 -45 0 -45 0 0 301 c0 247 -3 303 -14 315 -12 11 -51 14
-185 14 -107 0 -171 4 -171 10 0 6 -13 10 -30 10 -16 0 -30 5 -30 10 0 6 -11
10 -25 10 -14 0 -25 5 -25 10 0 6 -7 10 -16 10 -8 0 -12 5 -9 10 3 6 -1 10
-10 10 -25 0 -95 78 -88 97 4 11 3 14 -5 9 -7 -4 -12 -1 -12 8 0 9 -4 16 -10
16 -5 0 -10 9 -10 20 0 11 -4 20 -10 20 -5 0 -10 14 -10 30 0 17 -4 30 -10 30
-6 0 -10 67 -10 180 0 153 -2 180 -15 180 -8 0 -15 5 -15 10 0 6 -95 10 -266
10 -217 0 -268 -3 -280 -14 -11 -12 -14 -53 -14 -200 l0 -186 -50 0 -50 0 0
190 c0 120 4 190 10 190 6 0 10 9 10 20 0 11 5 20 10 20 6 0 10 7 10 16 0 8 4
13 8 10 5 -3 15 4 22 15 14 18 29 19 302 19 185 0 288 4 288 10 0 6 7 10 15
10 13 0 15 40 15 300 l0 300 40 0 40 0 0 -296z m-195 -1025 c-4 -5 5 -9 19 -9
14 0 26 -4 26 -10 0 -5 9 -10 20 -10 11 0 20 -4 20 -10 0 -5 5 -10 10 -10 17
0 60 -47 60 -65 0 -8 5 -15 10 -15 6 0 10 -11 10 -24 0 -14 5 -28 10 -31 6 -4
10 -90 10 -226 0 -139 4 -219 10 -219 6 0 10 -7 10 -15 0 -13 29 -15 200 -15
l200 0 0 -50 0 -50 -200 0 c-127 0 -200 4 -200 10 0 6 -7 10 -15 10 -18 0 -65
44 -65 60 0 6 -5 8 -10 5 -6 -4 -10 -3 -9 2 1 4 1 104 0 221 -1 181 -3 212
-16 212 -11 0 -15 11 -15 36 0 19 -4 33 -8 30 -4 -2 -9 4 -9 15 -2 22 -26 49
-43 49 -6 0 -9 4 -6 8 2 4 -12 9 -32 10 -20 2 -38 7 -40 12 -2 6 -96 10 -233
10 l-229 0 0 40 0 41 260 -1 c159 -1 258 -5 255 -11z m-2995 -2279 c0 -11 5
-20 10 -20 6 0 10 -9 10 -20 0 -11 5 -20 10 -20 6 0 10 -16 10 -35 0 -19 5
-35 10 -35 6 0 10 -9 10 -20 0 -11 5 -20 10 -20 6 0 10 -13 10 -30 0 -16 5
-30 10 -30 6 0 10 -9 10 -20 0 -11 7 -20 15 -20 10 0 15 -10 15 -30 0 -16 5
-30 10 -30 6 0 10 -11 10 -25 0 -14 5 -25 10 -25 6 0 10 -13 10 -30 0 -16 5
-30 10 -30 6 0 10 -9 10 -20 0 -11 5 -20 10 -20 6 0 10 -9 10 -20 0 -17 -7
-20 -40 -20 -38 0 -40 2 -40 30 0 20 -5 30 -15 30 -8 0 -15 9 -15 20 0 11 -4
20 -10 20 -5 0 -10 7 -10 16 0 36 -25 44 -139 44 -104 0 -111 -1 -111 -20 0
-11 -4 -20 -10 -20 -5 0 -10 -9 -10 -20 0 -11 -4 -20 -10 -20 -5 0 -10 -12
-10 -26 0 -33 -21 -54 -54 -54 -22 0 -26 4 -26 30 0 17 5 30 10 30 6 0 10 9
10 20 0 11 5 20 10 20 6 0 10 14 10 30 0 17 5 30 10 30 6 0 10 11 10 25 0 14
5 25 10 25 6 0 10 14 10 30 0 17 5 30 10 30 6 0 10 9 10 20 0 11 5 20 10 20 6
0 10 14 10 30 0 17 5 30 10 30 6 0 10 9 10 20 0 11 7 20 15 20 10 0 15 11 15
35 0 19 5 35 10 35 6 0 10 7 10 15 0 27 24 44 63 45 30 0 37 -3 37 -20z m580
10 c0 -5 7 -10 15 -10 8 0 15 -9 15 -20 0 -11 5 -20 10 -20 6 0 10 -16 10 -35
0 -19 5 -35 10 -35 6 0 10 -9 10 -20 0 -11 5 -20 10 -20 6 0 10 -13 10 -30 0
-16 5 -30 10 -30 6 0 10 -9 10 -20 0 -11 5 -20 10 -20 6 0 10 -13 10 -30 0
-16 5 -30 10 -30 6 0 10 -16 10 -35 0 -19 5 -35 10 -35 6 0 10 -9 10 -20 0
-11 5 -20 10 -20 6 0 10 9 10 20 0 11 5 20 10 20 6 0 10 16 10 35 0 19 5 35
10 35 6 0 10 14 10 30 0 17 5 30 10 30 6 0 10 9 10 20 0 11 7 20 15 20 10 0
15 10 15 30 0 17 5 30 10 30 6 0 10 16 10 35 0 19 5 35 10 35 6 0 10 9 10 20
0 11 5 20 10 20 6 0 10 14 10 30 0 29 1 30 50 30 l50 0 0 -270 0 -270 -30 0
-30 0 0 220 c0 140 -4 220 -10 220 -5 0 -10 -16 -10 -35 0 -19 -4 -35 -10 -35
-5 0 -10 -13 -10 -30 0 -16 -4 -30 -10 -30 -5 0 -10 -9 -10 -20 0 -11 -4 -20
-10 -20 -5 0 -10 -13 -10 -30 0 -16 -4 -30 -10 -30 -5 0 -10 -13 -10 -29 0
-17 -5 -33 -12 -37 -7 -5 -8 -3 -3 6 5 9 4 11 -3 6 -7 -4 -12 -18 -12 -32 0
-13 -4 -24 -10 -24 -5 0 -10 -13 -10 -30 0 -16 -4 -30 -10 -30 -5 0 -10 -9
-10 -20 0 -16 -7 -20 -30 -20 -23 0 -30 4 -30 20 0 11 -4 20 -10 20 -5 0 -10
9 -10 20 0 11 -4 20 -10 20 -5 0 -10 14 -10 30 0 17 -4 30 -10 30 -5 0 -10 16
-10 35 0 19 -4 35 -10 35 -5 0 -10 9 -10 20 0 11 -4 20 -10 20 -5 0 -10 14
-10 30 0 17 -4 30 -10 30 -5 0 -10 9 -10 20 0 11 -7 20 -15 20 -10 0 -15 10
-15 30 0 17 -4 30 -10 30 -6 0 -10 -75 -10 -205 l0 -205 -30 0 -30 0 0 270 0
270 40 0 c22 0 40 -4 40 -10z m1190 -20 l0 -30 -165 0 -165 0 0 -85 0 -85 155
0 155 0 0 -30 0 -30 -155 0 -155 0 0 -95 0 -95 175 0 175 0 0 -30 0 -30 -215
0 -215 0 0 270 0 270 205 0 205 0 0 -30z m730 0 l0 -30 -95 0 -95 0 0 -240 0
-240 -40 0 -40 0 0 240 0 240 -85 0 -85 0 0 30 0 30 220 0 220 0 0 -30z m690
0 l0 -30 -95 0 -95 0 0 -240 0 -240 -30 0 -30 0 0 240 0 240 -95 0 -95 0 0 30
0 30 220 0 220 0 0 -30z m1040 20 c0 -5 9 -10 20 -10 11 0 20 -4 20 -10 0 -5
7 -10 16 -10 20 0 44 -24 44 -44 0 -9 5 -16 10 -16 6 0 10 -7 10 -15 0 -8 -9
-15 -20 -15 -11 0 -20 -4 -20 -10 0 -5 -9 -10 -20 -10 -14 0 -20 7 -20 21 0
26 -23 49 -49 49 -12 0 -21 5 -21 10 0 6 -33 10 -80 10 -47 0 -80 -4 -80 -10
0 -5 -7 -10 -16 -10 -18 0 -44 -23 -44 -39 0 -6 -7 -11 -15 -11 -8 0 -15 -9
-15 -20 0 -11 -4 -20 -10 -20 -6 0 -10 -42 -10 -105 0 -63 4 -105 10 -105 6 0
10 -9 10 -20 0 -11 6 -20 13 -20 7 0 19 -9 27 -20 8 -11 22 -20 32 -20 10 0
18 -4 18 -10 0 -6 38 -10 95 -10 57 0 95 4 95 10 0 6 7 10 16 10 29 0 44 27
44 79 l0 51 -75 0 -75 0 0 30 0 30 115 0 115 0 0 -90 c0 -83 -2 -93 -25 -115
-13 -14 -31 -25 -40 -25 -8 0 -15 -4 -15 -10 0 -5 -9 -10 -20 -10 -11 0 -20
-4 -20 -10 0 -6 -45 -10 -115 -10 -70 0 -115 4 -115 10 0 6 -9 10 -20 10 -11
0 -20 5 -20 10 0 6 -10 10 -21 10 -22 0 -62 37 -54 49 2 4 -5 14 -16 21 -12 9
-19 26 -19 47 0 18 -4 33 -10 33 -6 0 -10 33 -10 80 0 47 4 80 10 80 6 0 10
14 10 30 0 17 5 30 10 30 6 0 10 7 10 15 0 8 5 15 10 15 6 0 10 7 10 16 0 22
25 44 49 44 12 0 21 5 21 10 0 6 9 10 20 10 11 0 20 5 20 10 0 6 42 10 105 10
63 0 105 -4 105 -10z m790 0 c0 -5 11 -10 25 -10 16 0 39 -13 60 -35 33 -33
35 -38 35 -105 0 -40 -4 -70 -10 -70 -5 0 -10 -9 -10 -20 0 -13 -7 -20 -20
-20 -11 0 -20 -4 -20 -10 0 -5 -6 -10 -12 -10 -7 0 -22 -7 -32 -15 -19 -14
-19 -15 2 -34 12 -10 22 -27 22 -37 0 -11 9 -26 20 -34 11 -8 20 -21 20 -30 0
-9 9 -22 20 -30 11 -8 20 -22 20 -32 0 -10 5 -18 10 -18 6 0 10 -4 10 -10 0
-5 -16 -10 -36 -10 -36 0 -64 18 -64 42 0 8 -9 20 -20 28 -11 8 -20 22 -20 32
0 10 -4 18 -10 18 -5 0 -10 9 -10 20 0 11 -4 20 -10 20 -5 0 -10 7 -10 15 0 8
-4 15 -10 15 -5 0 -10 9 -10 20 0 18 -7 20 -85 20 l-85 0 0 -115 0 -115 -45 0
-45 0 0 270 0 270 160 0 c100 0 160 -4 160 -10z m790 0 c0 -5 12 -10 26 -10
17 0 39 -14 64 -40 21 -22 43 -40 49 -40 6 0 11 -11 11 -25 0 -14 5 -25 10
-25 6 0 10 -18 10 -40 0 -22 5 -40 10 -40 6 0 10 -18 10 -40 0 -22 -4 -40 -10
-40 -5 0 -10 -20 -10 -45 0 -25 -4 -45 -10 -45 -5 0 -10 -9 -10 -20 0 -11 -5
-20 -11 -20 -6 0 -28 -18 -49 -40 -21 -22 -46 -40 -54 -40 -9 0 -16 -4 -16
-10 0 -6 -42 -10 -105 -10 -63 0 -105 4 -105 10 0 6 -9 10 -20 10 -11 0 -20 5
-20 10 0 6 -7 10 -15 10 -20 0 -65 45 -65 65 0 8 -4 15 -10 15 -5 0 -10 16
-10 35 0 19 -4 35 -10 35 -6 0 -10 33 -10 80 0 47 4 80 10 80 6 0 10 14 10 30
0 17 5 30 10 30 6 0 10 9 10 20 0 24 42 70 65 70 8 0 15 5 15 10 0 6 9 10 20
10 11 0 20 5 20 10 0 6 38 10 95 10 57 0 95 -4 95 -10z m560 -180 c0 -120 4
-190 10 -190 6 0 10 -11 10 -25 0 -40 42 -75 90 -75 25 0 40 -5 41 -12 0 -10
2 -10 6 0 2 7 22 12 44 12 47 0 89 35 89 75 0 14 5 25 10 25 6 0 10 70 10 190
l0 190 35 0 35 0 0 -210 c0 -133 -4 -210 -10 -210 -5 0 -10 -7 -10 -16 0 -17
-23 -44 -37 -44 -5 0 -15 -9 -23 -20 -8 -11 -22 -20 -32 -20 -10 0 -18 -4 -18
-10 0 -6 -39 -10 -98 -10 -84 0 -101 3 -120 20 -12 11 -28 20 -37 20 -8 0 -15
9 -15 20 0 11 -4 20 -10 20 -5 0 -10 9 -10 20 0 11 -4 20 -10 20 -6 0 -10 77
-10 210 l0 210 30 0 30 0 0 -190z m1000 180 c0 -5 14 -10 30 -10 22 0 41 -10
66 -35 34 -34 35 -38 35 -110 0 -72 -1 -76 -35 -110 -19 -19 -44 -35 -56 -35
-11 0 -20 -4 -20 -10 0 -6 -45 -10 -115 -10 l-115 0 0 -105 0 -105 -30 0 -30
0 0 270 0 270 135 0 c83 0 135 -4 135 -10z m-4884 -964 c8 -8 14 -22 14 -30 0
-9 8 -16 20 -16 12 0 20 7 20 16 0 15 23 44 34 44 15 0 4 -37 -14 -50 -16 -11
-20 -26 -20 -67 0 -46 -3 -53 -20 -53 -17 0 -20 7 -20 53 0 41 -4 56 -20 67
-11 8 -20 22 -20 32 0 22 7 23 26 4z m290 0 c22 -23 18 -99 -6 -116 -11 -8
-20 -20 -20 -27 0 -8 -14 -13 -40 -13 -26 0 -40 5 -40 13 0 7 -9 19 -20 27
-23 17 -28 92 -7 115 16 19 114 20 133 1z m84 -56 l0 -70 40 0 40 0 0 70 c0
63 2 70 20 70 18 0 20 -7 20 -58 0 -46 -4 -60 -20 -72 -11 -8 -20 -20 -20 -27
0 -8 -14 -13 -40 -13 -29 0 -40 4 -40 15 0 8 -7 15 -15 15 -12 0 -15 14 -15
70 0 56 3 70 15 70 12 0 15 -14 15 -70z m290 30 c0 -22 -4 -40 -10 -40 -5 0
-10 -9 -10 -20 0 -11 5 -20 10 -20 6 0 10 -11 10 -25 0 -14 -4 -25 -10 -25 -5
0 -10 7 -10 15 0 8 -4 15 -10 15 -5 0 -10 9 -10 20 0 16 -7 20 -35 20 -33 0
-35 -2 -35 -35 0 -28 -4 -35 -20 -35 -18 0 -20 7 -20 85 l0 85 75 0 75 0 0
-40z m120 20 c0 -11 5 -20 10 -20 6 0 10 -18 10 -40 0 -22 5 -40 10 -40 6 0
10 9 10 20 0 11 5 20 10 20 6 0 10 18 10 40 0 36 3 40 25 40 18 0 25 -5 25
-20 0 -11 5 -20 10 -20 6 0 10 -18 10 -40 0 -22 5 -40 10 -40 6 0 10 9 10 20
0 11 5 20 10 20 6 0 10 16 10 35 0 35 22 57 38 40 4 -4 1 -10 -5 -12 -8 -3
-13 -22 -13 -44 0 -21 -4 -39 -10 -39 -5 0 -10 -16 -10 -35 0 -28 -4 -35 -20
-35 -15 0 -20 7 -20 25 0 14 -4 25 -10 25 -5 0 -10 18 -10 40 0 22 -4 40 -10
40 -5 0 -10 -9 -10 -20 0 -11 -7 -20 -15 -20 -11 0 -15 -12 -15 -45 0 -38 -3
-45 -20 -45 -15 0 -20 7 -20 25 0 14 -4 25 -10 25 -5 0 -10 14 -10 30 0 17 -4
30 -10 30 -5 0 -10 14 -10 30 0 17 5 30 10 30 6 0 10 -9 10 -20z m380 0 c0
-11 5 -20 10 -20 6 0 10 -17 10 -38 0 -26 -6 -42 -20 -52 -11 -8 -20 -20 -20
-27 0 -9 -17 -13 -55 -13 -42 0 -55 3 -55 15 0 8 -4 15 -10 15 -14 0 -12 108
3 124 7 9 35 14 75 15 55 0 62 -2 62 -19z m180 -20 c0 -22 -4 -40 -10 -40 -5
0 -10 -9 -10 -20 0 -11 5 -20 10 -20 6 0 10 -11 10 -25 0 -14 -4 -25 -10 -25
-5 0 -10 7 -10 15 0 8 -4 15 -10 15 -5 0 -10 9 -10 20 0 16 -7 20 -30 20 -28
0 -30 -3 -30 -35 0 -28 -4 -35 -20 -35 -18 0 -20 7 -20 85 l0 85 70 0 70 0 0
-40z m70 -30 l0 -70 50 0 c38 0 50 -4 50 -15 0 -12 -13 -15 -60 -15 l-60 0 0
85 c0 50 4 85 10 85 6 0 10 -30 10 -70z m256 56 c22 -23 18 -99 -6 -116 -11
-8 -20 -20 -20 -27 0 -9 -17 -13 -55 -13 l-55 0 0 85 0 85 61 0 c39 0 65 -5
75 -14z m270 0 c22 -23 18 -99 -6 -116 -11 -8 -20 -20 -20 -27 0 -9 -15 -13
-45 -13 -30 0 -45 4 -45 13 0 7 -9 19 -20 27 -23 17 -28 92 -7 115 17 19 123
20 143 1z m164 4 c0 -5 -20 -10 -45 -10 -43 0 -45 -1 -45 -30 0 -29 2 -30 45
-30 25 0 45 -4 45 -10 0 -5 -20 -10 -45 -10 -45 0 -45 0 -45 -35 0 -19 -4 -35
-10 -35 -6 0 -10 35 -10 85 l0 85 55 0 c30 0 55 -4 55 -10z m-2644 -334 c8 -8
14 -28 14 -45 0 -17 5 -31 10 -31 6 0 10 -9 10 -20 0 -11 5 -20 10 -20 6 0 10
9 10 20 0 11 5 20 10 20 6 0 10 14 10 31 0 33 19 59 44 59 13 0 16 -14 16 -85
0 -50 -4 -85 -10 -85 -6 0 -10 28 -10 65 0 37 -4 65 -10 65 -5 0 -10 -11 -10
-25 0 -14 -4 -25 -10 -25 -5 0 -10 -12 -10 -26 0 -23 -20 -54 -34 -54 -3 0 -6
9 -6 20 0 11 -4 20 -10 20 -5 0 -10 9 -10 20 0 11 -4 20 -10 20 -5 0 -10 -18
-10 -40 0 -33 -3 -40 -20 -40 -18 0 -20 7 -20 85 0 71 3 85 16 85 8 0 22 -6
30 -14z m289 4 c4 -6 -12 -10 -39 -10 -42 0 -46 -2 -46 -25 0 -22 4 -25 40
-25 22 0 40 -4 40 -10 0 -5 -18 -10 -40 -10 -38 0 -40 -2 -40 -30 0 -29 1 -30
50 -30 28 0 50 -4 50 -10 0 -6 -32 -10 -75 -10 l-75 0 0 85 0 85 64 0 c36 0
68 -4 71 -10z m185 -10 c0 -11 5 -20 10 -20 6 0 10 -18 10 -40 0 -60 -33 -90
-100 -90 l-50 0 0 85 0 85 65 0 c58 0 65 -2 65 -20z m80 -65 c0 -50 -4 -85
-10 -85 -6 0 -10 35 -10 85 0 50 4 85 10 85 6 0 10 -35 10 -85z m110 75 c0 -5
-11 -10 -25 -10 -23 0 -25 -3 -25 -51 0 -30 6 -56 14 -65 16 -16 76 -19 76 -4
0 6 9 10 20 10 24 0 25 -6 6 -26 -9 -8 -34 -14 -61 -14 -48 0 -75 16 -75 44 0
9 -4 16 -10 16 -5 0 -10 9 -10 20 0 11 5 20 10 20 6 0 10 9 10 20 0 12 6 27
13 35 14 16 57 20 57 5z m67 -5 c8 -9 12 -19 8 -23 -4 -4 -10 -1 -12 6 -3 6
-13 12 -24 12 -10 0 -19 5 -19 10 0 15 30 12 47 -5z m133 -20 c0 -19 5 -35 10
-35 6 0 10 -9 10 -20 0 -11 7 -20 15 -20 10 0 15 -10 15 -30 0 -20 -5 -30 -15
-30 -8 0 -15 9 -15 20 0 17 -7 20 -50 20 -43 0 -50 -3 -50 -20 0 -11 -4 -20
-10 -20 -5 0 -10 9 -10 20 0 11 5 20 10 20 6 0 10 14 10 30 0 17 5 30 10 30 6
0 10 9 10 20 0 26 20 49 43 50 13 0 17 -8 17 -35z m110 -40 l0 -75 40 0 c22 0
40 -4 40 -10 0 -5 -22 -10 -50 -10 l-50 0 0 85 c0 50 4 85 10 85 6 0 10 -32
10 -75z m310 65 c0 -5 -13 -10 -30 -10 l-30 0 0 -75 c0 -43 -4 -75 -10 -75 -6
0 -10 32 -10 75 l0 75 -35 0 c-19 0 -35 5 -35 10 0 6 32 10 75 10 43 0 75 -4
75 -10z m150 0 c0 -5 -25 -10 -55 -10 -52 0 -55 -1 -55 -25 0 -24 3 -25 55
-25 70 0 72 -18 3 -22 -49 -3 -53 -5 -56 -30 l-3 -28 65 0 c37 0 66 -4 66 -10
0 -6 -32 -10 -75 -10 l-75 0 0 85 0 85 65 0 c37 0 65 -4 65 -10z m180 -10 c0
-11 -4 -20 -10 -20 -5 0 -10 5 -10 10 0 15 -70 12 -86 -4 -8 -8 -14 -31 -14
-51 0 -20 6 -43 14 -51 18 -17 83 -19 89 -1 2 6 8 9 12 5 13 -13 -23 -38 -55
-38 -48 0 -80 38 -80 95 0 62 13 74 83 75 50 0 57 -2 57 -20z m70 -15 l0 -35
50 0 50 0 0 35 c0 19 5 35 10 35 6 0 10 -35 10 -85 0 -50 -4 -85 -10 -85 -5 0
-10 18 -10 40 l0 40 -50 0 -50 0 0 -40 c0 -22 -4 -40 -10 -40 -6 0 -10 35 -10
85 0 50 4 85 10 85 6 0 10 -16 10 -35z m200 15 c0 -11 -4 -20 -10 -20 -6 0
-10 -28 -10 -65 0 -37 -4 -65 -10 -65 -6 0 -10 35 -10 85 0 78 2 85 20 85 13
0 20 -7 20 -20z m110 -65 c0 -71 -3 -85 -16 -85 -20 0 -44 24 -44 44 0 9 -4
16 -10 16 -5 0 -10 9 -10 20 0 11 -7 20 -15 20 -16 0 -19 9 -9 34 9 23 19 20
21 -6 1 -13 7 -24 13 -26 5 -2 10 -10 10 -19 0 -14 23 -43 34 -43 3 0 6 29 6
65 0 37 4 65 10 65 6 0 10 -35 10 -85z m100 75 c0 -5 -9 -10 -20 -10 -17 0
-20 -7 -20 -51 0 -30 6 -56 14 -65 17 -16 66 -19 66 -4 0 6 7 10 15 10 12 0
15 13 15 55 0 55 0 55 -31 55 -17 0 -28 4 -24 10 18 29 75 -1 75 -39 0 -12 5
-21 10 -21 6 0 10 -9 10 -20 0 -11 -4 -20 -10 -20 -5 0 -10 -7 -10 -16 0 -28
-27 -44 -75 -44 -48 0 -75 16 -75 44 0 9 -4 16 -10 16 -19 0 -10 60 13 85 22
24 57 33 57 15z m150 -65 l0 -75 50 0 c28 0 50 -4 50 -10 0 -6 -27 -10 -60
-10 l-60 0 0 85 c0 50 4 85 10 85 6 0 10 -32 10 -75z m270 55 c0 -11 5 -20 10
-20 6 0 10 -18 10 -40 0 -58 -34 -90 -95 -90 -25 0 -45 5 -45 10 0 6 -7 10
-15 10 -12 0 -15 14 -15 65 0 51 3 65 15 65 8 0 15 4 15 9 0 5 27 9 60 10 53
0 60 -2 60 -19z m190 0 c0 -22 -16 -27 -22 -8 -6 16 -76 11 -94 -7 -18 -18
-18 -82 0 -101 27 -27 116 -11 116 20 0 3 -13 6 -30 6 -16 0 -30 5 -30 10 0 6
18 10 40 10 36 0 40 -2 40 -26 0 -38 -22 -54 -75 -54 -64 0 -95 31 -95 95 0
63 13 74 88 75 55 0 62 -2 62 -20z m80 -65 c0 -50 -4 -85 -10 -85 -6 0 -10 35
-10 85 0 50 4 85 10 85 6 0 10 -35 10 -85z m170 75 c0 -5 -25 -10 -55 -10 -52
0 -55 -1 -55 -25 0 -24 3 -25 55 -25 30 0 55 -4 55 -10 0 -5 -25 -10 -55 -10
-54 0 -55 0 -55 -30 l0 -30 65 0 c37 0 65 -4 65 -10 0 -6 -32 -10 -75 -10
l-75 0 0 85 0 85 65 0 c37 0 65 -4 65 -10z m85 0 c3 -5 -1 -10 -9 -10 -9 0
-16 -4 -16 -10 0 -5 5 -10 10 -10 6 0 10 -7 10 -15 0 -10 10 -15 28 -15 16 0
34 -8 42 -20 8 -11 20 -20 27 -20 7 0 13 -9 13 -20 0 -11 -7 -20 -15 -20 -8 0
-15 -4 -15 -10 0 -16 -90 -12 -107 5 -8 9 -12 19 -8 23 4 4 10 1 12 -5 6 -18
71 -16 89 1 19 20 18 26 -6 26 -11 0 -20 5 -20 10 0 6 -12 10 -26 10 -45 0
-69 43 -41 75 14 17 24 18 32 5z m75 0 c0 -5 -9 -10 -20 -10 -11 0 -20 5 -20
10 0 6 9 10 20 10 11 0 20 -4 20 -10z"/>
<path d="M4920 6460 c0 -93 4 -150 10 -150 6 0 10 -18 10 -40 0 -22 5 -40 11
-40 5 0 8 -4 4 -9 -3 -5 0 -15 7 -23 7 -7 14 -20 16 -27 2 -8 16 -26 32 -41
17 -16 30 -31 30 -35 0 -14 30 -35 50 -35 12 0 18 -4 15 -10 -4 -6 5 -10 20
-10 15 0 24 -4 20 -10 -4 -6 12 -10 39 -10 25 0 46 -4 46 -10 0 -6 55 -10 145
-10 l145 0 0 155 c0 97 -4 155 -10 155 -5 0 -10 20 -10 45 0 25 -4 45 -10 45
-5 0 -10 9 -10 20 0 11 -3 20 -8 20 -4 0 -12 10 -17 23 -6 12 -17 21 -25 19
-8 -2 -12 0 -7 4 9 9 -32 54 -50 54 -7 0 -13 5 -13 10 0 6 -11 10 -25 10 -16
0 -25 6 -25 15 0 11 -11 15 -40 15 -22 0 -40 5 -40 10 0 6 -58 10 -155 10
l-155 0 0 -150z"/>
<path d="M1670 3615 c0 -19 -4 -35 -10 -35 -5 0 -10 -9 -10 -20 0 -11 -4 -20
-10 -20 -5 0 -10 -13 -10 -30 0 -16 -4 -30 -10 -30 -5 0 -10 -9 -10 -20 0 -11
-7 -20 -15 -20 -8 0 -15 -9 -15 -20 0 -19 7 -20 95 -20 l95 0 0 30 c0 17 -4
30 -10 30 -5 0 -10 14 -10 30 0 17 -4 30 -10 30 -5 0 -10 9 -10 20 0 11 -4 20
-10 20 -5 0 -10 14 -10 31 0 27 -19 59 -34 59 -3 0 -6 -16 -6 -35z"/>
<path d="M6520 3565 l0 -105 85 0 c50 0 85 4 85 10 0 6 16 10 36 10 38 0 64
18 64 44 0 9 5 16 10 16 6 0 10 14 10 30 0 17 -4 30 -10 30 -5 0 -10 11 -10
25 0 18 -5 25 -20 25 -11 0 -20 5 -20 10 0 6 -45 10 -115 10 l-115 0 0 -105z"/>
<path d="M7370 3660 c0 -5 -7 -10 -16 -10 -18 0 -44 -23 -44 -39 0 -6 -4 -11
-10 -11 -5 0 -10 -9 -10 -20 0 -11 -4 -20 -10 -20 -6 0 -10 -42 -10 -105 0
-63 4 -105 10 -105 6 0 10 -7 10 -15 0 -9 16 -31 35 -50 34 -35 35 -35 125
-35 53 0 90 4 90 10 0 6 7 10 16 10 20 0 44 24 44 44 0 9 5 16 10 16 6 0 10
11 10 25 0 14 5 25 10 25 6 0 10 33 10 80 0 47 -4 80 -10 80 -5 0 -10 9 -10
20 0 11 -4 20 -10 20 -5 0 -10 9 -10 21 0 24 -22 49 -44 49 -9 0 -16 5 -16 10
0 6 -35 10 -85 10 -50 0 -85 -4 -85 -10z"/>
<path d="M8890 3565 l0 -105 111 0 c114 0 139 8 139 44 0 9 5 16 11 16 5 0 7
-5 3 -12 -4 -7 -3 -8 4 -4 18 11 15 96 -3 96 -9 0 -15 9 -15 25 0 18 -5 25
-20 25 -11 0 -20 5 -20 10 0 6 -42 10 -105 10 l-105 0 0 -105z"/>
<path d="M4393 2735 c-17 -19 -16 -73 1 -91 8 -8 29 -14 46 -14 17 0 38 6 46
14 8 8 14 29 14 46 0 17 -6 38 -14 46 -19 18 -77 18 -93 -1z"/>
<path d="M4770 2720 c0 -27 3 -30 31 -30 33 0 59 19 59 44 0 12 -11 16 -45 16
-43 0 -45 -1 -45 -30z"/>
<path d="M5250 2704 c0 -56 16 -74 69 -74 34 0 41 3 41 20 0 11 5 20 10 20 6
0 10 9 10 20 0 11 -4 20 -10 20 -5 0 -9 3 -9 8 5 27 -4 32 -56 32 l-55 0 0
-46z"/>
<path d="M5460 2720 c0 -26 4 -30 26 -30 29 0 54 21 54 44 0 12 -10 16 -40 16
-38 0 -40 -2 -40 -30z"/>
<path d="M5770 2690 l0 -60 41 0 c49 0 69 18 69 60 0 42 -20 60 -69 60 l-41 0
0 -60z"/>
<path d="M6033 2735 c-17 -19 -16 -73 1 -91 8 -8 31 -14 51 -14 45 0 65 19 65
60 0 17 -6 38 -14 46 -19 18 -87 18 -103 -1z"/>
<path d="M4088 2423 l-48 -4 0 -65 0 -64 45 0 c38 0 45 3 45 20 0 11 5 20 10
20 6 0 10 16 10 35 0 19 -5 35 -11 35 -6 0 -9 7 -5 15 3 8 4 14 3 13 -1 -1
-23 -3 -49 -5z"/>
<path d="M4500 2395 c0 -14 -4 -25 -10 -25 -5 0 -10 -9 -10 -20 0 -16 7 -20
30 -20 23 0 30 4 30 20 0 11 -4 20 -10 20 -5 0 -10 11 -10 25 0 14 -4 25 -10
25 -5 0 -10 -11 -10 -25z"/>
<path d="M6070 2369 c0 -60 15 -79 64 -79 29 0 36 4 36 20 0 11 5 20 10 20 6
0 10 9 10 20 0 11 -4 20 -10 20 -5 0 -10 11 -10 25 0 23 -3 25 -50 25 l-50 0
0 -51z"/>
</g>
</svg>
